<?xml version="1.0" encoding="UTF-8" standalone="no"?>
<!DOCTYPE svg PUBLIC "-//W3C//DTD SVG 1.1//EN"
 "http://www.w3.org/Graphics/SVG/1.1/DTD/svg11.dtd">
<!-- Generated by graphviz version 2.36.0 (20140111.2315)
 -->
<!-- Title: %3 Pages: 1 -->
<svg width="220pt" height="188pt"
 viewBox="0.00 0.00 220.00 188.00" xmlns="http://www.w3.org/2000/svg" xmlns:xlink="http://www.w3.org/1999/xlink">
<g id="graph0" class="graph" transform="scale(1 1) rotate(0) translate(4 184)">
<title>%3</title>
<polygon fill="white" stroke="none" points="-4,4 -4,-184 216,-184 216,4 -4,4"/>
<!-- a -->
<g id="node1" class="node"><title>a</title>
<ellipse fill="none" stroke="black" cx="32" cy="-162" rx="28.3955" ry="18"/>
<text text-anchor="middle" x="32" y="-158.3" font-family="Times,serif" font-size="14.00">Amy</text>
</g>
<!-- w -->
<g id="node5" class="node"><title>w</title>
<ellipse fill="#2fa4e7" stroke="#2fa4e7" cx="106" cy="-90" rx="34.1708" ry="18"/>
<text text-anchor="middle" x="106" y="-86.3" font-family="bold" font-size="14.00" fill="white">www</text>
</g>
<!-- a&#45;&#45;w -->
<g id="edge1" class="edge"><title>a&#45;&#45;w</title>
<path fill="none" stroke="black" d="M47.3328,-146.496C59.8637,-134.642 77.514,-117.946 90.1762,-105.968"/>
</g>
<!-- b -->
<g id="node2" class="node"><title>b</title>
<ellipse fill="none" stroke="black" cx="106" cy="-162" rx="27" ry="18"/>
<text text-anchor="middle" x="106" y="-158.3" font-family="Times,serif" font-size="14.00">Bob</text>
</g>
<!-- b&#45;&#45;w -->
<g id="edge3" class="edge"><title>b&#45;&#45;w</title>
<path fill="none" stroke="black" d="M106,-143.697C106,-132.846 106,-118.917 106,-108.104"/>
</g>
<!-- c -->
<g id="node3" class="node"><title>c</title>
<ellipse fill="none" stroke="black" cx="179" cy="-162" rx="27.4223" ry="18"/>
<text text-anchor="middle" x="179" y="-158.3" font-family="Times,serif" font-size="14.00">Cam</text>
</g>
<!-- c&#45;&#45;w -->
<g id="edge7" class="edge"><title>c&#45;&#45;w</title>
<path fill="none" stroke="black" d="M163.874,-146.496C151.596,-134.722 134.336,-118.172 121.864,-106.212"/>
</g>
<!-- d -->
<g id="node4" class="node"><title>d</title>
<ellipse fill="none" stroke="black" cx="27" cy="-90" rx="27" ry="18"/>
<text text-anchor="middle" x="27" y="-86.3" font-family="Times,serif" font-size="14.00">Dan</text>
</g>
<!-- d&#45;&#45;w -->
<g id="edge5" class="edge"><title>d&#45;&#45;w</title>
<path fill="none" stroke="black" d="M54.1562,-90C59.9617,-90 65.7671,-90 71.5725,-90"/>
</g>
<!-- e -->
<g id="node6" class="node"><title>e</title>
<ellipse fill="none" stroke="black" cx="185" cy="-90" rx="27" ry="18"/>
<text text-anchor="middle" x="185" y="-86.3" font-family="Times,serif" font-size="14.00">Eve</text>
</g>
<!-- w&#45;&#45;e -->
<g id="edge6" class="edge"><title>w&#45;&#45;e</title>
<path fill="none" stroke="black" d="M140.254,-90C146.08,-90 151.907,-90 157.733,-90"/>
</g>
<!-- u -->
<g id="node7" class="node"><title>u</title>
<ellipse fill="#2fa4e7" stroke="#2fa4e7" cx="32" cy="-18" rx="29.3722" ry="18"/>
<text text-anchor="middle" x="32" y="-14.3" font-family="bold" font-size="14.00" fill="white">You</text>
</g>
<!-- w&#45;&#45;u -->
<g id="edge2" class="edge"><title>w&#45;&#45;u</title>
<path fill="none" stroke="red" stroke-width="2" stroke-dasharray="5,2" d="M89.9431,-73.811C77.2758,-61.8284 59.7252,-45.2265 47.2669,-33.4417"/>
</g>
<!-- f -->
<g id="node8" class="node"><title>f</title>
<ellipse fill="none" stroke="black" cx="106" cy="-18" rx="27" ry="18"/>
<text text-anchor="middle" x="106" y="-14.3" font-family="Times,serif" font-size="14.00">Fay</text>
</g>
<!-- w&#45;&#45;f -->
<g id="edge4" class="edge"><title>w&#45;&#45;f</title>
<path fill="none" stroke="black" d="M106,-71.6966C106,-60.8463 106,-46.9167 106,-36.1043"/>
</g>
<!-- g -->
<g id="node9" class="node"><title>g</title>
<ellipse fill="none" stroke="black" cx="178" cy="-18" rx="27" ry="18"/>
<text text-anchor="middle" x="178" y="-14.3" font-family="Times,serif" font-size="14.00">Gav</text>
</g>
<!-- w&#45;&#45;g -->
<g id="edge8" class="edge"><title>w&#45;&#45;g</title>
<path fill="none" stroke="black" d="M121.623,-73.811C134.031,-61.748 151.254,-45.0035 163.389,-33.2051"/>
</g>
</g>
</svg>
