<?xml version="1.0" encoding="UTF-8" standalone="no"?>
<!DOCTYPE svg PUBLIC "-//W3C//DTD SVG 1.1//EN"
 "http://www.w3.org/Graphics/SVG/1.1/DTD/svg11.dtd">
<!-- Generated by graphviz version 2.36.0 (20140111.2315)
 -->
<!-- Title: %3 Pages: 1 -->
<svg width="255pt" height="248pt"
 viewBox="0.00 0.00 254.69 247.81" xmlns="http://www.w3.org/2000/svg" xmlns:xlink="http://www.w3.org/1999/xlink">
<g id="graph0" class="graph" transform="scale(1 1) rotate(0) translate(4 243.812)">
<title>%3</title>
<polygon fill="white" stroke="none" points="-4,4 -4,-243.812 250.688,-243.812 250.688,4 -4,4"/>
<!-- a -->
<g id="node1" class="node"><title>a</title>
<ellipse fill="none" stroke="black" cx="28.5975" cy="-134.813" rx="28.6953" ry="18"/>
<text text-anchor="middle" x="28.5975" y="-131.113" font-family="Times,serif" font-size="14.00">Amy</text>
</g>
<!-- b -->
<g id="node2" class="node"><title>b</title>
<ellipse fill="none" stroke="black" cx="100.851" cy="-107.999" rx="27" ry="18"/>
<text text-anchor="middle" x="100.851" y="-104.299" font-family="Times,serif" font-size="14.00">Bob</text>
</g>
<!-- a&#45;&#45;b -->
<g id="edge1" class="edge"><title>a&#45;&#45;b</title>
<path fill="none" stroke="black" d="M53.463,-125.585C61.1374,-122.737 69.5651,-119.609 77.1581,-116.792"/>
</g>
<!-- d -->
<g id="node6" class="node"><title>d</title>
<ellipse fill="none" stroke="black" cx="76.6909" cy="-185.747" rx="27" ry="18"/>
<text text-anchor="middle" x="76.6909" y="-182.047" font-family="Times,serif" font-size="14.00">Dan</text>
</g>
<!-- a&#45;&#45;d -->
<g id="edge4" class="edge"><title>a&#45;&#45;d</title>
<path fill="none" stroke="black" d="M43.2884,-150.371C49.2552,-156.691 56.1324,-163.974 62.0899,-170.284"/>
</g>
<!-- c -->
<g id="node3" class="node"><title>c</title>
<ellipse fill="none" stroke="black" cx="101.49" cy="-26.2592" rx="27.8951" ry="18"/>
<text text-anchor="middle" x="101.49" y="-22.5592" font-family="Times,serif" font-size="14.00">Cam</text>
</g>
<!-- b&#45;&#45;c -->
<g id="edge2" class="edge"><title>b&#45;&#45;c</title>
<path fill="none" stroke="black" d="M100.993,-89.8584C101.099,-76.3127 101.243,-57.8827 101.349,-44.3492"/>
</g>
<!-- g -->
<g id="node5" class="node"><title>g</title>
<ellipse fill="none" stroke="black" cx="184.903" cy="-96.0053" rx="27" ry="18"/>
<text text-anchor="middle" x="184.903" y="-92.3053" font-family="Times,serif" font-size="14.00">Gav</text>
</g>
<!-- b&#45;&#45;g -->
<g id="edge7" class="edge"><title>b&#45;&#45;g</title>
<path fill="none" stroke="black" d="M127.446,-104.204C137.353,-102.79 148.59,-101.187 158.482,-99.7755"/>
</g>
<!-- w -->
<g id="node8" class="node"><title>w</title>
<ellipse fill="#2fa4e7" stroke="#2fa4e7" cx="160.77" cy="-153.072" rx="34.394" ry="18"/>
<text text-anchor="middle" x="160.77" y="-149.372" font-family="bold" font-size="14.00" fill="white">www</text>
</g>
<!-- b&#45;&#45;w -->
<g id="edge14" class="edge"><title>b&#45;&#45;w</title>
<path fill="none" stroke="orange" stroke-width="2" d="M118.829,-121.523C125.723,-126.709 133.631,-132.657 140.709,-137.981"/>
</g>
<!-- e -->
<g id="node7" class="node"><title>e</title>
<ellipse fill="none" stroke="black" cx="181.588" cy="-18" rx="27" ry="18"/>
<text text-anchor="middle" x="181.588" y="-14.3" font-family="Times,serif" font-size="14.00">Eve</text>
</g>
<!-- c&#45;&#45;e -->
<g id="edge5" class="edge"><title>c&#45;&#45;e</title>
<path fill="none" stroke="black" d="M129.505,-23.3705C137.715,-22.5239 146.67,-21.6006 154.802,-20.762"/>
</g>
<!-- f -->
<g id="node4" class="node"><title>f</title>
<ellipse fill="none" stroke="black" cx="219.688" cy="-172.275" rx="27" ry="18"/>
<text text-anchor="middle" x="219.688" y="-168.575" font-family="Times,serif" font-size="14.00">Fay</text>
</g>
<!-- f&#45;&#45;g -->
<g id="edge3" class="edge"><title>f&#45;&#45;g</title>
<path fill="none" stroke="black" d="M211.794,-154.968C206.102,-142.486 198.451,-125.71 192.765,-113.244"/>
</g>
<!-- f&#45;&#45;w -->
<g id="edge11" class="edge"><title>f&#45;&#45;w</title>
<path fill="none" stroke="green" stroke-width="2" d="M195.383,-164.354C193.608,-163.775 191.807,-163.188 190.008,-162.602"/>
</g>
<!-- d&#45;&#45;b -->
<g id="edge13" class="edge"><title>d&#45;&#45;b</title>
<path fill="none" stroke="orange" stroke-width="2" d="M82.1732,-168.105C86.0993,-155.471 91.3667,-138.52 95.3068,-125.841"/>
</g>
<!-- e&#45;&#45;g -->
<g id="edge6" class="edge"><title>e&#45;&#45;g</title>
<path fill="none" stroke="black" d="M182.357,-36.0921C182.893,-48.694 183.604,-65.431 184.139,-78.0114"/>
</g>
<!-- w&#45;&#45;g -->
<g id="edge8" class="edge"><title>w&#45;&#45;g</title>
<path fill="none" stroke="black" d="M168.274,-135.329C171.207,-128.392 174.562,-120.458 177.487,-113.542"/>
</g>
<!-- u -->
<g id="node9" class="node"><title>u</title>
<ellipse fill="#2fa4e7" stroke="#2fa4e7" cx="151.216" cy="-221.812" rx="29.4969" ry="18"/>
<text text-anchor="middle" x="151.216" y="-218.112" font-family="bold" font-size="14.00" fill="white">You</text>
</g>
<!-- w&#45;&#45;u -->
<g id="edge9" class="edge"><title>w&#45;&#45;u</title>
<path fill="none" stroke="red" stroke-width="2" stroke-dasharray="5,2" d="M158.26,-171.133C156.867,-181.157 155.139,-193.591 153.743,-203.634"/>
</g>
<!-- u&#45;&#45;f -->
<g id="edge10" class="edge"><title>u&#45;&#45;f</title>
<path fill="none" stroke="green" stroke-width="2" d="M170.289,-208.013C179.944,-201.028 191.616,-192.584 201.189,-185.658"/>
</g>
<!-- u&#45;&#45;d -->
<g id="edge12" class="edge"><title>u&#45;&#45;d</title>
<path fill="none" stroke="orange" stroke-width="2" d="M128.044,-210.599C118.644,-206.05 107.841,-200.821 98.5756,-196.338"/>
</g>
</g>
</svg>
